<?xml version="1.0" encoding="UTF-8"?>
<svg id="Camada_1" xmlns="http://www.w3.org/2000/svg" version="1.1" viewBox="0 0 611.52 317.97">
  <!-- Generator: Adobe Illustrator 30.1.0, SVG Export Plug-In . SVG Version: 2.1.1 Build 136)  -->
  <defs>
    <style>
      .st0 {
        fill: #b56a34;
      }

      .st1 {
        fill: #4b2e1e;
      }

      .st2 {
        fill: #f4f2ed;
      }

      .st3 {
        fill: #8b5e3c;
      }
    </style>
  </defs>
  <rect class="st1" x="25.22" y="52.93" width="561.08" height="181.25" rx="9.12" ry="9.12"/>
  <g>
    <path class="st2" d="M82.56,190.65c-5.25,0-9.6-4.35-9.6-9.6v-76.8c0-5.25,4.35-9.6,9.6-9.6h43.2c15.9,0,28.8,12.9,28.8,28.8,0,6.15-1.95,11.85-5.25,16.5,6.15,5.25,10.05,13.2,10.05,21.9,0,15.9-12.9,28.8-28.8,28.8h-48ZM92.16,113.85v19.2h33.6c5.25,0,9.6-4.35,9.6-9.6s-4.35-9.6-9.6-9.6h-33.6ZM92.16,152.25v19.2h38.4c5.25,0,9.6-4.35,9.6-9.6s-4.35-9.6-9.6-9.6h-38.4Z"/>
    <path class="st2" d="M202.56,113.85c21.15,0,38.4,17.25,38.4,38.4,0,6.9-1.95,13.35-5.1,19.05,3.75,1.65,6.3,5.4,6.3,9.75,0,6-4.8,10.8-10.8,10.8-4.35,0-8.1-2.55-9.9-6.3-5.55,3.3-12,5.1-18.9,5.1-21.15,0-38.4-17.25-38.4-38.4s17.25-38.4,38.4-38.4ZM202.56,171.45c10.65,0,19.2-8.55,19.2-19.2s-8.55-19.2-19.2-19.2-19.2,8.55-19.2,19.2,8.55,19.2,19.2,19.2Z"/>
    <path class="st2" d="M261.36,112.65c4.35,0,8.1,2.55,9.75,6.3,5.7-3.15,12.15-5.1,19.05-5.1,5.25,0,9.6,4.35,9.6,9.6s-4.35,9.6-9.6,9.6c-10.65,0-19.2,8.55-19.2,19.2v28.8c0,5.25-4.35,9.6-9.6,9.6s-9.6-4.35-9.6-9.6v-28.8c0-6.9,1.8-13.35,5.1-18.9-3.75-1.8-6.3-5.55-6.3-9.9,0-6,4.8-10.8,10.8-10.8Z"/>
    <path class="st2" d="M316.56,87.45c6,0,10.8,4.8,10.8,10.8s-4.8,10.8-10.8,10.8-10.8-4.8-10.8-10.8,4.8-10.8,10.8-10.8ZM326.16,181.05c0,5.25-4.35,9.6-9.6,9.6s-9.6-4.35-9.6-9.6v-57.6c0-5.25,4.35-9.6,9.6-9.6s9.6,4.35,9.6,9.6v57.6Z"/>
    <path class="st2" d="M378.96,171.45c2.7,0,4.8-2.1,4.8-4.8s-2.1-4.8-4.8-4.8h-19.2c-13.2,0-24-10.8-24-24s10.8-24,24-24h28.8c5.25,0,9.6,4.35,9.6,9.6s-4.35,9.6-9.6,9.6h-28.8c-2.7,0-4.8,2.1-4.8,4.8s2.1,4.8,4.8,4.8h19.2c13.2,0,24,10.8,24,24s-10.8,24-24,24h-33.6c-5.25,0-9.6-4.35-9.6-9.6s4.35-9.6,9.6-9.6h33.6Z"/>
    <path class="st2" d="M420.96,113.85v-9.6c0-5.25,4.35-9.6,9.6-9.6s9.6,4.35,9.6,9.6v9.6h14.4c5.25,0,9.6,4.35,9.6,9.6s-4.35,9.6-9.6,9.6h-14.4v28.8c0,5.25,4.35,9.6,9.6,9.6h4.8c5.25,0,9.6,4.35,9.6,9.6s-4.35,9.6-9.6,9.6h-4.8c-15.9,0-28.8-12.9-28.8-28.8v-28.8h-7.2c-5.25,0-9.6-4.35-9.6-9.6s4.35-9.6,9.6-9.6h7.2Z"/>
    <path class="st2" d="M501.36,113.85c21.15,0,38.4,17.25,38.4,38.4,0,6.9-1.95,13.35-5.1,19.05,3.75,1.65,6.3,5.4,6.3,9.75,0,6-4.8,10.8-10.8,10.8-4.35,0-8.1-2.55-9.9-6.3-5.55,3.3-12,5.1-18.9,5.1-21.15,0-38.4-17.25-38.4-38.4s17.25-38.4,38.4-38.4ZM501.36,171.45c10.65,0,19.2-8.55,19.2-19.2s-8.55-19.2-19.2-19.2-19.2,8.55-19.2,19.2,8.55,19.2,19.2,19.2Z"/>
  </g>
  <g>
    <path class="st3" d="M250.06,24.06v5c0,6.03-3.01,9.47-8.83,9.47s-8.83-3.44-8.83-9.47V9.47c0-6.03,3.01-9.47,8.83-9.47s8.83,3.44,8.83,9.47v3.66h-5.6v-4.04c0-2.69-1.18-3.71-3.07-3.71s-3.07,1.02-3.07,3.71v20.34c0,2.69,1.18,3.66,3.07,3.66s3.07-.97,3.07-3.66v-5.38h5.6Z"/>
    <path class="st3" d="M275.51,38.1h-5.97l-1.02-6.83h-7.27l-1.02,6.83h-5.44L260.82.43h8.66l6.03,37.67ZM262,26.16h5.7l-2.8-19.05h-.11l-2.8,19.05Z"/>
    <path class="st3" d="M288.91,0c5.76,0,8.72,3.44,8.72,9.47v1.18h-5.6v-1.56c0-2.69-1.08-3.71-2.96-3.71s-2.96,1.02-2.96,3.71,1.18,4.79,5.06,8.18c4.95,4.36,6.51,7.48,6.51,11.79,0,6.03-3.01,9.47-8.83,9.47s-8.83-3.44-8.83-9.47v-2.31h5.6v2.69c0,2.69,1.18,3.66,3.07,3.66s3.07-.97,3.07-3.66-1.18-4.79-5.06-8.18c-4.95-4.36-6.51-7.48-6.51-11.79,0-6.03,2.96-9.47,8.72-9.47Z"/>
    <path class="st3" d="M322.93,38.1h-5.97l-1.02-6.83h-7.27l-1.02,6.83h-5.44L308.23.43h8.66l6.03,37.67ZM309.42,26.16h5.7l-2.8-19.05h-.11l-2.8,19.05Z"/>
    <path class="st3" d="M339.39.43h9.36c5.92,0,8.83,3.28,8.83,9.31v19.05c0,6.03-2.91,9.31-8.83,9.31h-9.36V.43ZM345.31,5.81v26.91h3.34c1.88,0,3.01-.97,3.01-3.66V9.47c0-2.69-1.13-3.66-3.01-3.66h-3.34Z"/>
    <path class="st3" d="M363.56,9.47c0-6.03,3.18-9.47,8.99-9.47s8.99,3.44,8.99,9.47v19.59c0,6.03-3.18,9.47-8.99,9.47s-8.99-3.44-8.99-9.47V9.47ZM369.48,29.44c0,2.69,1.18,3.71,3.07,3.71s3.07-1.02,3.07-3.71V9.1c0-2.69-1.18-3.71-3.07-3.71s-3.07,1.02-3.07,3.71v20.34Z"/>
  </g>
  <path class="st0" d="M237.31,259.68H39.49c-21.77,0-39.49-17.71-39.49-39.49V66.9C0,45.13,17.71,27.41,39.49,27.41h184.19v10.21H39.49c-16.14,0-29.27,13.13-29.27,29.27v153.29c0,16.14,13.13,29.27,29.27,29.27h197.82v10.21Z"/>
  <path class="st0" d="M572.03,259.68h-180.17v-10.21h180.17c16.14,0,29.27-13.13,29.27-29.27V66.9c0-16.14-13.13-29.27-29.27-29.27h-182.19v-10.21h182.19c21.77,0,39.49,17.71,39.49,39.49v153.29c0,21.77-17.71,39.49-39.49,39.49Z"/>
  <path class="st3" d="M382.93,249.01c-.51-1.01-1.14-1.95-1.91-2.78-.76-.84-1.65-1.57-2.63-2.17-1.3-.8-2.67-1.37-4.04-1.73-1.36-.36-2.72-.51-4.05-.51h-.05c-2.78,0-5.4.64-7.78,1.51-3.56,1.32-6.62,3.2-8.85,4.75-.34.24-.66.48-.97.7h-.07v-9.83h-105.18v26.24c0,18.93,11.5,35.15,27.82,41.91v10.88h49.53v-10.88c7.6-3.15,14.16-8.34,19-14.91l2.52-.8c13.04-4.14,22.45-10.03,28.7-16.37,3.13-3.17,5.46-6.47,7.04-9.74,1.57-3.27,2.39-6.53,2.39-9.65,0-2.33-.47-4.6-1.49-6.61ZM374.87,261.83c-1.71,3.56-4.93,7.65-10.01,11.53-3.96,3.04-9.05,5.96-15.4,8.47,2.02-5.15,3.12-10.77,3.12-16.65v-5.95l2.65-2.38-1.08-1.21,1.09,1.2c.08-.07,2.2-1.93,5.14-3.71,1.49-.9,3.2-1.78,4.92-2.4,1.71-.62,3.42-.99,4.92-.99h.03c.74,0,1.44.08,2.09.25.66.17,1.27.43,1.89.81.36.22.66.48.93.76.39.44.71.96.95,1.63.23.66.38,1.47.38,2.43,0,1.69-.46,3.83-1.61,6.21Z"/>
  <path class="st2" d="M257.27,234.08s.15-.48.45-1.28c.29-.79.74-1.91,1.13-3.17.19-.63.34-1.31.43-1.99.04-.34.07-.68.07-1.02l-.02-.43-.05-.66c-.09-.56-.28-1.36-.54-2.11-.26-.77-.58-1.6-.92-2.47-.32-.88-.67-1.8-.92-2.8-.27-.97-.43-2.08-.43-3.07,0-2.18.69-4.01,1.59-5.33.86-1.34,1.9-2.16,2.63-2.63.75-.47,1.22-.63,1.22-.63,0,0-.25.44-.62,1.18-.36.74-.8,1.8-1.09,3.05-.27,1.24-.37,2.71-.12,4.05.13.77.34,1.45.61,2.25.31.82.63,1.66.95,2.49.32.89.67,1.83.91,2.84.25,1.03.39,2.03.34,3.24l-.07.65c-.05.41-.09.56-.15.85-.13.5-.27.98-.46,1.41-.36.88-.84,1.6-1.3,2.22-.93,1.23-1.88,2.02-2.55,2.56-.68.53-1.1.8-1.1.8Z"/>
  <path class="st2" d="M277.27,234.08s.15-.48.45-1.28c.29-.79.74-1.91,1.13-3.17.19-.63.34-1.31.43-1.99.04-.34.07-.68.07-1.02l-.02-.43-.05-.66c-.09-.56-.28-1.36-.54-2.11-.26-.77-.58-1.6-.92-2.47-.32-.88-.67-1.8-.92-2.8-.27-.97-.43-2.08-.43-3.07,0-2.18.69-4.01,1.59-5.33.86-1.34,1.9-2.16,2.63-2.63.75-.47,1.22-.63,1.22-.63,0,0-.25.44-.62,1.18-.36.74-.8,1.8-1.09,3.05-.27,1.24-.37,2.71-.12,4.05.13.77.34,1.45.61,2.25.31.82.63,1.66.95,2.49.32.89.67,1.83.91,2.84.25,1.03.39,2.03.34,3.24l-.07.65c-.05.41-.09.56-.15.85-.13.5-.27.98-.46,1.41-.36.88-.84,1.6-1.3,2.22-.93,1.23-1.88,2.02-2.55,2.56-.68.53-1.1.8-1.1.8Z"/>
  <path class="st2" d="M297.27,234.08s.15-.48.45-1.28c.29-.79.74-1.91,1.13-3.17.19-.63.34-1.31.43-1.99.04-.34.07-.68.07-1.02l-.02-.43-.05-.66c-.1-.56-.28-1.36-.54-2.11-.26-.77-.58-1.6-.92-2.47-.32-.88-.67-1.8-.92-2.8-.27-.97-.43-2.08-.43-3.07,0-2.18.69-4.01,1.59-5.33.86-1.34,1.9-2.16,2.63-2.63.75-.47,1.22-.63,1.22-.63,0,0-.25.44-.62,1.18-.36.74-.8,1.8-1.09,3.05-.27,1.24-.37,2.71-.12,4.05.13.77.34,1.45.61,2.25.31.82.63,1.66.95,2.49.32.89.67,1.83.91,2.84.25,1.03.39,2.03.34,3.24l-.07.65c-.05.41-.09.56-.15.85-.13.5-.27.98-.46,1.41-.36.88-.84,1.6-1.3,2.22-.93,1.23-1.88,2.02-2.55,2.56-.68.53-1.1.8-1.1.8Z"/>
  <path class="st2" d="M317.27,234.08s.15-.48.45-1.28c.29-.79.74-1.91,1.13-3.17.19-.63.34-1.31.43-1.99.04-.34.07-.68.07-1.02l-.02-.43-.05-.66c-.1-.56-.28-1.36-.54-2.11-.26-.77-.58-1.6-.92-2.47-.32-.88-.67-1.8-.92-2.8-.27-.97-.43-2.08-.43-3.07,0-2.18.69-4.01,1.59-5.33.86-1.34,1.9-2.16,2.63-2.63.75-.47,1.22-.63,1.22-.63,0,0-.25.44-.62,1.18-.36.74-.8,1.8-1.09,3.05-.27,1.24-.37,2.71-.12,4.05.13.77.34,1.45.61,2.25.31.82.63,1.66.95,2.49.32.89.67,1.83.91,2.84.25,1.03.39,2.03.34,3.24l-.07.65c-.05.41-.09.56-.15.85-.13.5-.27.98-.46,1.41-.36.88-.84,1.6-1.3,2.22-.93,1.23-1.88,2.02-2.55,2.56-.68.53-1.1.8-1.1.8Z"/>
  <path class="st2" d="M337.27,234.08s.15-.48.45-1.28c.29-.79.74-1.91,1.13-3.17.19-.63.34-1.31.43-1.99.04-.34.07-.68.07-1.02l-.02-.43-.05-.66c-.1-.56-.28-1.36-.54-2.11-.26-.77-.58-1.6-.92-2.47-.32-.88-.67-1.8-.92-2.8-.27-.97-.43-2.08-.43-3.07,0-2.18.69-4.01,1.59-5.33.86-1.34,1.9-2.16,2.63-2.63.75-.47,1.22-.63,1.22-.63,0,0-.25.44-.62,1.18-.36.74-.8,1.8-1.09,3.05-.27,1.24-.37,2.71-.12,4.05.13.77.34,1.45.61,2.25.31.82.63,1.66.95,2.49.32.89.67,1.83.91,2.84.25,1.03.39,2.03.34,3.24l-.07.65c-.05.41-.09.56-.15.85-.13.5-.27.98-.46,1.41-.36.88-.84,1.6-1.3,2.22-.93,1.23-1.88,2.02-2.55,2.56-.68.53-1.1.8-1.1.8Z"/>
</svg>